font.ufo
<glyph name="comma" format="2">
  <advance width="262"/>
  <unicode hex="002C"/>
  <outline>
    <contour>
      <point x="103" y="-157" type="line"/>
      <point x="198" y="100" type="line"/>
      <point x="119" y="130" type="line"/>
      <point x="26" y="-128" type="line"/>
    </contour>
  </outline>
</glyph>
<glyph name="period" format="2">
  <advance width="262"/>
  <unicode hex="002E"/>
  <outline>
    <contour>
      <point x="73" y="0" type="line"/>
      <point x="189" y="0" type="line"/>
      <point x="189" y="122" type="line"/>
      <point x="73" y="122" type="line"/>
    </contour>
  </outline>
</glyph>
<glyph name="two" format="2">
  <advance width="618"/>
  <unicode hex="0032"/>
  <outline>
    <contour>
      <point x="76" y="0" type="line"/>
      <point x="564" y="0" type="line"/>
      <point x="564" y="82" type="line"/>
      <point x="146" y="82" type="line"/>
      <point x="172" y="36" type="line"/>
      <point x="172" y="128" type="line" smooth="yes"/>
      <point x="172" y="175"/>
      <point x="188" y="198"/>
      <point x="250" y="226" type="curve" smooth="yes"/>
      <point x="387" y="289" type="line" smooth="yes"/>
      <point x="489" y="336"/>
      <point x="555" y="405"/>
      <point x="555" y="511" type="curve" smooth="yes"/>
      <point x="555" y="525" type="line" smooth="yes"/>
      <point x="555" y="644"/>
      <point x="477" y="750"/>
      <point x="312" y="750" type="curve" smooth="yes"/>
      <point x="146" y="750"/>
      <point x="68" y="644"/>
      <point x="68" y="518" type="curve"/>
      <point x="162" y="518" type="line"/>
      <point x="162" y="611"/>
      <point x="219" y="666"/>
      <point x="312" y="666" type="curve" smooth="yes"/>
      <point x="406" y="666"/>
      <point x="461" y="611"/>
      <point x="461" y="518" type="curve" smooth="yes"/>
      <point x="461" y="441"/>
      <point x="419" y="394"/>
      <point x="353" y="364" type="curve" smooth="yes"/>
      <point x="216" y="301" type="line" smooth="yes"/>
      <point x="109" y="252"/>
      <point x="76" y="207"/>
      <point x="76" y="120" type="curve" smooth="yes"/>
    </contour>
  </outline>
</glyph>
<glyph name="three" format="2">
  <advance width="614"/>
  <unicode hex="0033"/>
  <outline>
    <contour>
      <point x="299" y="-18" type="curve" smooth="yes"/>
      <point x="464" y="-18"/>
      <point x="554" y="91"/>
      <point x="554" y="207" type="curve" smooth="yes"/>
      <point x="554" y="221" type="line" smooth="yes"/>
      <point x="554" y="339"/>
      <point x="463" y="440"/>
      <point x="303" y="440" type="curve" smooth="yes"/>
      <point x="266" y="440"/>
      <point x="239" y="434"/>
      <point x="217" y="426" type="curve"/>
      <point x="287" y="429" type="line"/>
      <point x="518" y="597" type="line"/>
      <point x="518" y="730" type="line"/>
      <point x="73" y="730" type="line"/>
      <point x="73" y="648" type="line"/>
      <point x="428" y="648" type="line"/>
      <point x="438" y="630" type="line"/>
      <point x="159" y="426" type="line"/>
      <point x="207" y="340" type="line"/>
      <point x="229" y="355"/>
      <point x="259" y="366"/>
      <point x="300" y="366" type="curve" smooth="yes"/>
      <point x="397" y="366"/>
      <point x="460" y="304"/>
      <point x="460" y="214" type="curve" smooth="yes"/>
      <point x="460" y="123"/>
      <point x="397" y="66"/>
      <point x="299" y="66" type="curve" smooth="yes"/>
      <point x="200" y="66"/>
      <point x="138" y="123"/>
      <point x="138" y="214" type="curve"/>
      <point x="44" y="214" type="line"/>
      <point x="44" y="90"/>
      <point x="135" y="-18"/>
    </contour>
  </outline>
</glyph>
<glyph name="five" format="2">
  <advance width="623"/>
  <unicode hex="0035"/>
  <outline>
    <contour>
      <point x="316" y="-18" type="curve" smooth="yes"/>
      <point x="484" y="-18"/>
      <point x="577" y="101"/>
      <point x="577" y="219" type="curve" smooth="yes"/>
      <point x="577" y="233" type="line" smooth="yes"/>
      <point x="577" y="351"/>
      <point x="487" y="470"/>
      <point x="320" y="470" type="curve" smooth="yes"/>
      <point x="249" y="470"/>
      <point x="193" y="446"/>
      <point x="155" y="407" type="curve"/>
      <point x="181" y="398" type="line"/>
      <point x="209" y="681" type="line"/>
      <point x="185" y="648" type="line"/>
      <point x="512" y="648" type="line"/>
      <point x="512" y="730" type="line"/>
      <point x="129" y="730" type="line"/>
      <point x="92" y="342" type="line"/>
      <point x="180" y="342" type="line"/>
      <point x="211" y="372"/>
      <point x="267" y="390"/>
      <point x="316" y="390" type="curve" smooth="yes"/>
      <point x="417" y="390"/>
      <point x="483" y="318"/>
      <point x="483" y="226" type="curve" smooth="yes"/>
      <point x="483" y="133"/>
      <point x="416" y="66"/>
      <point x="316" y="66" type="curve" smooth="yes"/>
      <point x="214" y="66"/>
      <point x="150" y="134"/>
      <point x="150" y="226" type="curve"/>
      <point x="56" y="226" type="line"/>
      <point x="56" y="100"/>
      <point x="148" y="-18"/>
    </contour>
  </outline>
</glyph>
<glyph name="F" format="2">
  <advance width="560"/>
  <unicode hex="0046"/>
  <outline>
    <contour>
      <point x="106" y="0" type="line"/>
      <point x="204" y="0" type="line"/>
      <point x="204" y="730" type="line"/>
      <point x="106" y="730" type="line"/>
    </contour>
    <contour>
      <point x="184" y="325" type="line"/>
      <point x="497" y="326" type="line"/>
      <point x="497" y="414" type="line"/>
      <point x="184" y="413" type="line"/>
    </contour>
    <contour>
      <point x="184" y="642" type="line"/>
      <point x="514" y="642" type="line"/>
      <point x="514" y="730" type="line"/>
      <point x="184" y="730" type="line"/>
    </contour>
  </outline>
</glyph>
<glyph name="G" format="2">
  <advance width="831"/>
  <unicode hex="0047"/>
  <anchor x="434" y="0" name="bottom"/>
  <anchor x="414" y="730" name="top"/>
  <outline>
    <contour>
      <point x="432" y="-18" type="curve" smooth="yes"/>
      <point x="565" y="-18"/>
      <point x="670" y="32"/>
      <point x="735" y="118" type="curve"/>
      <point x="735" y="292" type="line"/>
      <point x="643" y="292" type="line"/>
      <point x="643" y="75" type="line"/>
      <point x="679" y="194" type="line"/>
      <point x="635" y="120"/>
      <point x="545" y="70"/>
      <point x="432" y="70" type="curve" smooth="yes"/>
      <point x="272" y="70"/>
      <point x="156" y="170"/>
      <point x="156" y="371" type="curve" smooth="yes"/>
      <point x="156" y="546"/>
      <point x="263" y="660"/>
      <point x="416" y="660" type="curve" smooth="yes"/>
      <point x="527" y="660"/>
      <point x="628" y="599"/>
      <point x="642" y="477" type="curve"/>
      <point x="742" y="477" type="line"/>
      <point x="727" y="638"/>
      <point x="598" y="750"/>
      <point x="416" y="750" type="curve" smooth="yes"/>
      <point x="191" y="750"/>
      <point x="56" y="570"/>
      <point x="56" y="383" type="curve" smooth="yes"/>
      <point x="56" y="361" type="line" smooth="yes"/>
      <point x="56" y="142"/>
      <point x="206" y="-18"/>
    </contour>
    <contour>
      <point x="406" y="272" type="line"/>
      <point x="797" y="272" type="line"/>
      <point x="797" y="354" type="line"/>
      <point x="406" y="354" type="line"/>
    </contour>
  </outline>
</glyph>
<glyph name="H" format="2">
  <advance width="804"/>
  <unicode hex="0048"/>
  <anchor x="402" y="0" name="bottom"/>
  <anchor x="402" y="606" name="center"/>
  <anchor x="402" y="730" name="top"/>
  <outline>
    <contour>
      <point x="600" y="0" type="line"/>
      <point x="698" y="0" type="line"/>
      <point x="698" y="730" type="line"/>
      <point x="600" y="730" type="line"/>
    </contour>
    <contour>
      <point x="106" y="0" type="line"/>
      <point x="204" y="0" type="line"/>
      <point x="204" y="730" type="line"/>
      <point x="106" y="730" type="line"/>
    </contour>
    <contour>
      <point x="184" y="319" type="line"/>
      <point x="620" y="319" type="line"/>
      <point x="620" y="407" type="line"/>
      <point x="184" y="407" type="line"/>
    </contour>
  </outline>
</glyph>
<glyph name="I" format="2">
  <advance width="314"/>
  <unicode hex="0049"/>
  <anchor x="157" y="0" name="bottom"/>
  <anchor x="204" y="10" name="ogonek"/>
  <anchor x="157" y="730" name="top"/>
  <anchor x="21" y="730" name="topleft"/>
  <outline>
    <contour>
      <point x="108" y="0" type="line"/>
      <point x="206" y="0" type="line"/>
      <point x="206" y="730" type="line"/>
      <point x="108" y="730" type="line"/>
    </contour>
  </outline>
</glyph>
<glyph name="K" format="2">
  <advance width="678"/>
  <unicode hex="004B"/>
  <anchor x="379" y="0" name="bottom"/>
  <anchor x="351" y="730" name="top"/>
  <outline>
    <contour>
      <point x="566" y="0" type="line"/>
      <point x="688" y="0" type="line"/>
      <point x="296" y="447" type="line"/>
      <point x="305" y="378" type="line"/>
      <point x="613" y="730" type="line"/>
      <point x="501" y="730" type="line"/>
      <point x="162" y="341" type="line"/>
      <point x="269" y="341" type="line"/>
    </contour>
    <contour>
      <point x="106" y="0" type="line"/>
      <point x="204" y="0" type="line"/>
      <point x="204" y="730" type="line"/>
      <point x="106" y="730" type="line"/>
    </contour>
  </outline>
</glyph>
<glyph name="O" format="2">
  <advance width="866"/>
  <unicode hex="004F"/>
  <anchor x="433" y="0" name="bottom"/>
  <anchor x="433" y="365" name="center"/>
  <anchor x="563" y="10" name="ogonek"/>
  <anchor x="433" y="730" name="top"/>
  <outline>
    <contour>
      <point x="433" y="-18" type="curve" smooth="yes"/>
      <point x="694" y="-18"/>
      <point x="810" y="196"/>
      <point x="810" y="356" type="curve" smooth="yes"/>
      <point x="810" y="378" type="line" smooth="yes"/>
      <point x="810" y="552"/>
      <point x="688" y="750"/>
      <point x="433" y="750" type="curve" smooth="yes"/>
      <point x="178" y="750"/>
      <point x="56" y="552"/>
      <point x="56" y="378" type="curve" smooth="yes"/>
      <point x="56" y="356" type="line" smooth="yes"/>
      <point x="56" y="196"/>
      <point x="172" y="-18"/>
    </contour>
    <contour>
      <point x="433" y="72" type="curve" smooth="yes"/>
      <point x="262" y="72"/>
      <point x="156" y="212"/>
      <point x="156" y="366" type="curve" smooth="yes"/>
      <point x="156" y="528"/>
      <point x="262" y="660"/>
      <point x="433" y="660" type="curve" smooth="yes"/>
      <point x="604" y="660"/>
      <point x="710" y="528"/>
      <point x="710" y="366" type="curve" smooth="yes"/>
      <point x="710" y="212"/>
      <point x="604" y="72"/>
    </contour>
  </outline>
</glyph>
<glyph name="P" format="2">
  <advance width="640"/>
  <unicode hex="0050"/>
  <outline>
    <contour>
      <point x="184" y="254" type="line"/>
      <point x="329" y="254" type="line" smooth="yes"/>
      <point x="508" y="254"/>
      <point x="602" y="345"/>
      <point x="602" y="486" type="curve" smooth="yes"/>
      <point x="602" y="502" type="line" smooth="yes"/>
      <point x="602" y="644"/>
      <point x="508" y="734"/>
      <point x="329" y="734" type="curve" smooth="yes"/>
      <point x="184" y="734" type="line"/>
      <point x="184" y="648" type="line"/>
      <point x="347" y="648" type="line" smooth="yes"/>
      <point x="450" y="648"/>
      <point x="502" y="582"/>
      <point x="502" y="494" type="curve" smooth="yes"/>
      <point x="502" y="407"/>
      <point x="450" y="340"/>
      <point x="347" y="340" type="curve" smooth="yes"/>
      <point x="184" y="340" type="line"/>
    </contour>
    <contour>
      <point x="106" y="0" type="line"/>
      <point x="204" y="0" type="line"/>
      <point x="204" y="734" type="line"/>
      <point x="106" y="734" type="line"/>
    </contour>
  </outline>
</glyph>
<glyph name="bracketleft" format="2">
  <advance width="376"/>
  <unicode hex="005B"/>
  <guideline y="-182"/>
  <outline>
    <contour>
      <point x="110" y="-182" type="line"/>
      <point x="202" y="-182" type="line"/>
      <point x="202" y="776" type="line"/>
      <point x="110" y="776" type="line"/>
    </contour>
    <contour>
      <point x="154" y="-182" type="line"/>
      <point x="322" y="-182" type="line"/>
      <point x="322" y="-106" type="line"/>
      <point x="154" y="-106" type="line"/>
    </contour>
    <contour>
      <point x="154" y="700" type="line"/>
      <point x="322" y="700" type="line"/>
      <point x="322" y="776" type="line"/>
      <point x="154" y="776" type="line"/>
    </contour>
  </outline>
</glyph>
<glyph name="a" format="2">
  <advance width="575"/>
  <unicode hex="0061"/>
  <anchor x="491" y="10" name="ogonek"/>
  <anchor x="279" y="534" name="top"/>
  <outline>
    <contour>
      <point x="415" y="0" type="line"/>
      <point x="491" y="0" type="line"/>
      <point x="491" y="338" type="line" smooth="yes"/>
      <point x="491" y="487"/>
      <point x="419" y="540"/>
      <point x="255" y="540" type="curve" smooth="yes"/>
      <point x="207" y="540"/>
      <point x="151" y="538"/>
      <point x="108" y="534" type="curve"/>
      <point x="108" y="450" type="line"/>
      <point x="152" y="453"/>
      <point x="225" y="456"/>
      <point x="287" y="456" type="curve" smooth="yes"/>
      <point x="360" y="456"/>
      <point x="399" y="418"/>
      <point x="399" y="345" type="curve" smooth="yes"/>
      <point x="399" y="160" type="line"/>
      <point x="415" y="160" type="line"/>
    </contour>
    <contour>
      <point x="240" y="-14" type="curve" smooth="yes"/>
      <point x="352" y="-14"/>
      <point x="415" y="46"/>
      <point x="425" y="160" type="curve"/>
      <point x="399" y="198" type="line"/>
      <point x="395" y="94"/>
      <point x="327" y="62"/>
      <point x="260" y="62" type="curve" smooth="yes"/>
      <point x="183" y="62"/>
      <point x="140" y="101"/>
      <point x="140" y="160" type="curve" smooth="yes"/>
      <point x="140" y="219"/>
      <point x="183" y="260"/>
      <point x="260" y="260" type="curve" smooth="yes"/>
      <point x="409" y="260" type="line"/>
      <point x="409" y="332" type="line"/>
      <point x="264" y="332" type="line" smooth="yes"/>
      <point x="125" y="332"/>
      <point x="46" y="273"/>
      <point x="46" y="160" type="curve" smooth="yes"/>
      <point x="46" y="49"/>
      <point x="119" y="-14"/>
    </contour>
  </outline>
</glyph>
<glyph name="b" format="2">
  <advance width="689"/>
  <unicode hex="0062"/>
  <outline>
    <contour>
      <point x="374" y="-18" type="curve" smooth="yes"/>
      <point x="532" y="-18"/>
      <point x="637" y="109"/>
      <point x="637" y="260" type="curve" smooth="yes"/>
      <point x="637" y="278" type="line" smooth="yes"/>
      <point x="637" y="429"/>
      <point x="535" y="552"/>
      <point x="382" y="552" type="curve" smooth="yes"/>
      <point x="260" y="552"/>
      <point x="161" y="475"/>
      <point x="154" y="302" type="curve"/>
      <point x="188" y="375" type="line"/>
      <point x="188" y="730" type="line"/>
      <point x="92" y="730" type="line"/>
      <point x="92" y="0" type="line"/>
      <point x="168" y="0" type="line"/>
      <point x="168" y="229" type="line"/>
      <point x="142" y="229" type="line"/>
      <point x="148" y="72"/>
      <point x="241" y="-18"/>
    </contour>
    <contour>
      <point x="363" y="66" type="curve" smooth="yes"/>
      <point x="268" y="66"/>
      <point x="184" y="131"/>
      <point x="184" y="241" type="curve" smooth="yes"/>
      <point x="184" y="287" type="line" smooth="yes"/>
      <point x="184" y="400"/>
      <point x="266" y="468"/>
      <point x="363" y="468" type="curve" smooth="yes"/>
      <point x="469" y="468"/>
      <point x="541" y="389"/>
      <point x="541" y="269" type="curve" smooth="yes"/>
      <point x="541" y="149"/>
      <point x="470" y="66"/>
    </contour>
  </outline>
</glyph>
<glyph name="d" format="2">
  <advance width="689"/>
  <unicode hex="0064"/>
  <anchor x="345" y="0" name="bottom"/>
  <anchor x="493" y="643" name="center"/>
  <anchor x="549" y="730" name="top"/>
  <anchor x="597" y="534" name="topright"/>
  <outline>
    <contour>
      <point x="315" y="-18" type="curve" smooth="yes"/>
      <point x="433" y="-18"/>
      <point x="540" y="54"/>
      <point x="549" y="237" type="curve"/>
      <point x="521" y="237" type="line"/>
      <point x="521" y="0" type="line"/>
      <point x="597" y="0" type="line"/>
      <point x="597" y="730" type="line"/>
      <point x="501" y="730" type="line"/>
      <point x="501" y="371" type="line"/>
      <point x="541" y="307" type="line"/>
      <point x="532" y="478"/>
      <point x="433" y="552"/>
      <point x="312" y="552" type="curve" smooth="yes"/>
      <point x="158" y="552"/>
      <point x="52" y="428"/>
      <point x="52" y="276" type="curve" smooth="yes"/>
      <point x="52" y="258" type="line" smooth="yes"/>
      <point x="52" y="104"/>
      <point x="163" y="-18"/>
    </contour>
    <contour>
      <point x="328" y="66" type="curve" smooth="yes"/>
      <point x="223" y="66"/>
      <point x="148" y="144"/>
      <point x="148" y="267" type="curve" smooth="yes"/>
      <point x="148" y="388"/>
      <point x="220" y="468"/>
      <point x="327" y="468" type="curve" smooth="yes"/>
      <point x="422" y="468"/>
      <point x="505" y="405"/>
      <point x="505" y="295" type="curve" smooth="yes"/>
      <point x="505" y="249" type="line" smooth="yes"/>
      <point x="505" y="136"/>
      <point x="426" y="66"/>
    </contour>
  </outline>
</glyph>
<glyph name="g" format="2">
  <advance width="675"/>
  <unicode hex="0067"/>
  <anchor x="305" y="-300" name="bottom"/>
  <anchor x="339" y="534" name="top"/>
  <outline>
    <contour>
      <point x="294" y="-208" type="curve" smooth="yes"/>
      <point x="507" y="-208"/>
      <point x="589" y="-129"/>
      <point x="589" y="63" type="curve" smooth="yes"/>
      <point x="589" y="534" type="line"/>
      <point x="513" y="534" type="line"/>
      <point x="513" y="306" type="line"/>
      <point x="541" y="307" type="line"/>
      <point x="535" y="464"/>
      <point x="444" y="552"/>
      <point x="310" y="552" type="curve" smooth="yes"/>
      <point x="158" y="552"/>
      <point x="52" y="437"/>
      <point x="52" y="287" type="curve" smooth="yes"/>
      <point x="52" y="269" type="line" smooth="yes"/>
      <point x="52" y="121"/>
      <point x="155" y="-4"/>
      <point x="305" y="-4" type="curve" smooth="yes"/>
      <point x="424" y="-4"/>
      <point x="522" y="74"/>
      <point x="529" y="237" type="curve"/>
      <point x="497" y="161" type="line"/>
      <point x="497" y="59" type="line" smooth="yes"/>
      <point x="497" y="-72"/>
      <point x="444" y="-128"/>
      <point x="298" y="-128" type="curve" smooth="yes"/>
      <point x="251" y="-128"/>
      <point x="196" y="-123"/>
      <point x="148" y="-116" type="curve"/>
      <point x="148" y="-197" type="line"/>
      <point x="193" y="-204"/>
      <point x="244" y="-208"/>
    </contour>
    <contour>
      <point x="323" y="84" type="curve" smooth="yes"/>
      <point x="221" y="84"/>
      <point x="148" y="159"/>
      <point x="148" y="278" type="curve" smooth="yes"/>
      <point x="148" y="395"/>
      <point x="219" y="472"/>
      <point x="324" y="472" type="curve" smooth="yes"/>
      <point x="415" y="472"/>
      <point x="497" y="413"/>
      <point x="497" y="306" type="curve" smooth="yes"/>
      <point x="497" y="260" type="line" smooth="yes"/>
      <point x="497" y="150"/>
      <point x="418" y="84"/>
    </contour>
  </outline>
</glyph>
<glyph name="m" format="2">
  <advance width="968"/>
  <unicode hex="006D"/>
  <outline>
    <contour>
      <point x="92" y="0" type="line"/>
      <point x="188" y="0" type="line"/>
      <point x="188" y="320" type="line" smooth="yes"/>
      <point x="188" y="409"/>
      <point x="240" y="462"/>
      <point x="319" y="462" type="curve" smooth="yes"/>
      <point x="395" y="462"/>
      <point x="440" y="412"/>
      <point x="440" y="326" type="curve" smooth="yes"/>
      <point x="440" y="0" type="line"/>
      <point x="536" y="0" type="line"/>
      <point x="536" y="320" type="line" smooth="yes"/>
      <point x="536" y="409"/>
      <point x="588" y="462"/>
      <point x="667" y="462" type="curve" smooth="yes"/>
      <point x="743" y="462"/>
      <point x="788" y="412"/>
      <point x="788" y="326" type="curve" smooth="yes"/>
      <point x="788" y="0" type="line"/>
      <point x="884" y="0" type="line"/>
      <point x="884" y="305" type="line" smooth="yes"/>
      <point x="884" y="460"/>
      <point x="822" y="550"/>
      <point x="696" y="550" type="curve" smooth="yes"/>
      <point x="692" y="550" type="line" smooth="yes"/>
      <point x="566" y="550"/>
      <point x="504" y="460"/>
      <point x="504" y="305" type="curve"/>
      <point x="532" y="305" type="line"/>
      <point x="532" y="460"/>
      <point x="472" y="550"/>
      <point x="346" y="550" type="curve" smooth="yes"/>
      <point x="342" y="550" type="line" smooth="yes"/>
      <point x="216" y="550"/>
      <point x="156" y="460"/>
      <point x="156" y="305" type="curve"/>
      <point x="168" y="305" type="line"/>
      <point x="168" y="534" type="line"/>
      <point x="92" y="534" type="line"/>
    </contour>
  </outline>
</glyph>
<glyph name="q" format="2">
  <advance width="689"/>
  <unicode hex="0071"/>
  <outline>
    <contour>
      <point x="501" y="-200" type="line"/>
      <point x="597" y="-200" type="line"/>
      <point x="597" y="534" type="line"/>
      <point x="521" y="534" type="line"/>
      <point x="521" y="305" type="line"/>
      <point x="549" y="305" type="line"/>
      <point x="543" y="463"/>
      <point x="450" y="552"/>
      <point x="315" y="552" type="curve" smooth="yes"/>
      <point x="158" y="552"/>
      <point x="52" y="431"/>
      <point x="52" y="280" type="curve" smooth="yes"/>
      <point x="52" y="262" type="line" smooth="yes"/>
      <point x="52" y="110"/>
      <point x="158" y="-18"/>
      <point x="311" y="-18" type="curve" smooth="yes"/>
      <point x="431" y="-18"/>
      <point x="532" y="61"/>
      <point x="539" y="235" type="curve"/>
      <point x="501" y="159" type="line"/>
    </contour>
    <contour>
      <point x="328" y="70" type="curve" smooth="yes"/>
      <point x="223" y="70"/>
      <point x="148" y="150"/>
      <point x="148" y="271" type="curve" smooth="yes"/>
      <point x="148" y="391"/>
      <point x="220" y="472"/>
      <point x="328" y="472" type="curve" smooth="yes"/>
      <point x="422" y="472"/>
      <point x="505" y="409"/>
      <point x="505" y="299" type="curve" smooth="yes"/>
      <point x="505" y="253" type="line" smooth="yes"/>
      <point x="505" y="140"/>
      <point x="426" y="70"/>
    </contour>
  </outline>
</glyph>
<glyph name="y" format="2">
  <advance width="547"/>
  <unicode hex="0079"/>
  <anchor x="272" y="534" name="top"/>
  <outline>
    <contour>
      <point x="56" y="-208" type="line"/>
      <point x="127" y="-208" type="line" smooth="yes"/>
      <point x="236" y="-208"/>
      <point x="307" y="-163"/>
      <point x="339" y="-57" type="curve" smooth="yes"/>
      <point x="517" y="534" type="line"/>
      <point x="423" y="534" type="line"/>
      <point x="255" y="-32" type="line" smooth="yes"/>
      <point x="235" y="-99"/>
      <point x="200" y="-122"/>
      <point x="133" y="-122" type="curve" smooth="yes"/>
      <point x="56" y="-122" type="line"/>
    </contour>
    <contour>
      <point x="219" y="12" type="line"/>
      <point x="335" y="12" type="line"/>
      <point x="335" y="92" type="line"/>
      <point x="219" y="92" type="line"/>
    </contour>
    <contour>
      <point x="209" y="12" type="line"/>
      <point x="299" y="12" type="line"/>
      <point x="116" y="534" type="line"/>
      <point x="18" y="534" type="line"/>
    </contour>
  </outline>
</glyph>
<glyph name="z" format="2">
  <advance width="488"/>
  <unicode hex="007A"/>
  <anchor x="247" y="0" name="bottom"/>
  <anchor x="244" y="267" name="center"/>
  <anchor x="240" y="534" name="top"/>
  <outline>
    <contour>
      <point x="58" y="0" type="line"/>
      <point x="450" y="0" type="line"/>
      <point x="450" y="76" type="line"/>
      <point x="147" y="76" type="line"/>
      <point x="161" y="67" type="line"/>
      <point x="143" y="92" type="line"/>
      <point x="143" y="78" type="line"/>
      <point x="434" y="427" type="line"/>
      <point x="434" y="534" type="line"/>
      <point x="54" y="534" type="line"/>
      <point x="54" y="458" type="line"/>
      <point x="346" y="458" type="line"/>
      <point x="333" y="464" type="line"/>
      <point x="349" y="440" type="line"/>
      <point x="349" y="456" type="line"/>
      <point x="58" y="107" type="line"/>
    </contour>
  </outline>
</glyph>
<glyph name="copyright" format="2">
  <advance width="722"/>
  <unicode hex="00A9"/>
  <outline>
    <contour>
      <point x="361" y="116" type="curve" smooth="yes"/>
      <point x="577" y="116"/>
      <point x="672" y="285"/>
      <point x="672" y="425" type="curve" smooth="yes"/>
      <point x="672" y="443" type="line" smooth="yes"/>
      <point x="672" y="588"/>
      <point x="573" y="750"/>
      <point x="361" y="750" type="curve" smooth="yes"/>
      <point x="149" y="750"/>
      <point x="50" y="588"/>
      <point x="50" y="443" type="curve" smooth="yes"/>
      <point x="50" y="425" type="line" smooth="yes"/>
      <point x="50" y="285"/>
      <point x="145" y="116"/>
    </contour>
    <contour>
      <point x="361" y="170" type="curve" smooth="yes"/>
      <point x="207" y="170"/>
      <point x="110" y="293"/>
      <point x="110" y="433" type="curve" smooth="yes"/>
      <point x="110" y="578"/>
      <point x="207" y="696"/>
      <point x="361" y="696" type="curve" smooth="yes"/>
      <point x="515" y="696"/>
      <point x="612" y="578"/>
      <point x="612" y="433" type="curve" smooth="yes"/>
      <point x="612" y="293"/>
      <point x="515" y="170"/>
    </contour>
    <contour>
      <point x="367" y="250" type="curve" smooth="yes"/>
      <point x="450" y="250"/>
      <point x="516" y="300"/>
      <point x="520" y="383" type="curve"/>
      <point x="458" y="383" type="line"/>
      <point x="453" y="340"/>
      <point x="420" y="310"/>
      <point x="367" y="310" type="curve" smooth="yes"/>
      <point x="296" y="310"/>
      <point x="270" y="364"/>
      <point x="270" y="433" type="curve" smooth="yes"/>
      <point x="270" y="503"/>
      <point x="297" y="554"/>
      <point x="367" y="554" type="curve" smooth="yes"/>
      <point x="420" y="554"/>
      <point x="449" y="526"/>
      <point x="455" y="484" type="curve"/>
      <point x="517" y="484" type="line"/>
      <point x="511" y="565"/>
      <point x="450" y="614"/>
      <point x="367" y="614" type="curve" smooth="yes"/>
      <point x="252" y="614"/>
      <point x="202" y="523"/>
      <point x="202" y="439" type="curve" smooth="yes"/>
      <point x="202" y="426" type="line" smooth="yes"/>
      <point x="202" y="347"/>
      <point x="247" y="250"/>
    </contour>
  </outline>
</glyph>
<glyph name="paragraph" format="2">
  <advance width="634"/>
  <unicode hex="00B6"/>
  <outline>
    <contour>
      <point x="200" y="401" type="curve" smooth="yes"/>
      <point x="294" y="401" type="line"/>
      <point x="294" y="734" type="line"/>
      <point x="200" y="734" type="line" smooth="yes"/>
      <point x="75" y="734"/>
      <point x="10" y="671"/>
      <point x="10" y="573" type="curve" smooth="yes"/>
      <point x="10" y="562" type="line" smooth="yes"/>
      <point x="10" y="464"/>
      <point x="75" y="401"/>
    </contour>
    <contour>
      <point x="253" y="0" type="line"/>
      <point x="352" y="0" type="line"/>
      <point x="352" y="734" type="line"/>
      <point x="253" y="734" type="line"/>
    </contour>
    <contour>
      <point x="431" y="0" type="line"/>
      <point x="528" y="0" type="line"/>
      <point x="528" y="734" type="line"/>
      <point x="431" y="734" type="line"/>
    </contour>
  </outline>
</glyph>
<glyph name="AE" format="2">
  <advance width="972"/>
  <unicode hex="00C6"/>
  <outline>
    <contour>
      <point x="12" y="0" type="line"/>
      <point x="110" y="0" type="line"/>
      <point x="372" y="666" type="line"/>
      <point x="321" y="642" type="line"/>
      <point x="499" y="642" type="line"/>
      <point x="499" y="730" type="line"/>
      <point x="301" y="730" type="line"/>
    </contour>
    <contour>
      <point x="178" y="247" type="line"/>
      <point x="499" y="247" type="line"/>
      <point x="499" y="336" type="line"/>
      <point x="214" y="336" type="line"/>
    </contour>
    <contour>
      <point x="478" y="0" type="line"/>
      <point x="577" y="0" type="line"/>
      <point x="577" y="730" type="line"/>
      <point x="478" y="730" type="line"/>
    </contour>
    <contour>
      <point x="556" y="0" type="line"/>
      <point x="910" y="0" type="line"/>
      <point x="910" y="88" type="line"/>
      <point x="556" y="88" type="line"/>
    </contour>
    <contour>
      <point x="556" y="327" type="line"/>
      <point x="880" y="327" type="line"/>
      <point x="880" y="415" type="line"/>
      <point x="556" y="415" type="line"/>
    </contour>
    <contour>
      <point x="556" y="642" type="line"/>
      <point x="900" y="642" type="line"/>
      <point x="900" y="730" type="line"/>
      <point x="556" y="730" type="line"/>
    </contour>
  </outline>
</glyph>
<glyph name="Thorn" format="2">
  <advance width="622"/>
  <unicode hex="00DE"/>
  <outline>
    <contour>
      <point x="184" y="140" type="line"/>
      <point x="324" y="140" type="line" smooth="yes"/>
      <point x="494" y="140"/>
      <point x="584" y="233"/>
      <point x="584" y="364" type="curve" smooth="yes"/>
      <point x="584" y="378" type="line" smooth="yes"/>
      <point x="584" y="509"/>
      <point x="494" y="602"/>
      <point x="324" y="602" type="curve" smooth="yes"/>
      <point x="184" y="602" type="line"/>
      <point x="184" y="516" type="line"/>
      <point x="338" y="516" type="line" smooth="yes"/>
      <point x="440" y="516"/>
      <point x="484" y="457"/>
      <point x="484" y="371" type="curve" smooth="yes"/>
      <point x="484" y="285"/>
      <point x="440" y="227"/>
      <point x="338" y="227" type="curve" smooth="yes"/>
      <point x="184" y="227" type="line"/>
    </contour>
    <contour>
      <point x="106" y="0" type="line"/>
      <point x="204" y="0" type="line"/>
      <point x="204" y="730" type="line"/>
      <point x="106" y="730" type="line"/>
    </contour>
  </outline>
</glyph>
<glyph name="ae" format="2">
  <advance width="955"/>
  <unicode hex="00E6"/>
  <guideline x="435" y="160" angle="0"/>
  <outline>
    <contour>
      <point x="663" y="-18" type="curve" smooth="yes"/>
      <point x="789" y="-18"/>
      <point x="879" y="47"/>
      <point x="902" y="158" type="curve"/>
      <point x="812" y="158" type="line"/>
      <point x="801" y="108"/>
      <point x="746" y="68"/>
      <point x="663" y="68" type="curve" smooth="yes"/>
      <point x="543" y="68"/>
      <point x="489" y="152"/>
      <point x="489" y="266" type="curve" smooth="yes"/>
      <point x="489" y="383"/>
      <point x="545" y="464"/>
      <point x="657" y="464" type="curve" smooth="yes"/>
      <point x="763" y="464"/>
      <point x="819" y="394"/>
      <point x="819" y="281" type="curve"/>
      <point x="841" y="321" type="line"/>
      <point x="479" y="321" type="line"/>
      <point x="479" y="249" type="line"/>
      <point x="911" y="249" type="line"/>
      <point x="911" y="291" type="line" smooth="yes"/>
      <point x="911" y="424"/>
      <point x="827" y="550"/>
      <point x="657" y="550" type="curve" smooth="yes"/>
      <point x="506" y="550"/>
      <point x="433" y="455"/>
      <point x="413" y="338" type="curve"/>
      <point x="479" y="338" type="line"/>
      <point x="479" y="489"/>
      <point x="417" y="540"/>
      <point x="255" y="540" type="curve" smooth="yes"/>
      <point x="207" y="540"/>
      <point x="151" y="538"/>
      <point x="108" y="534" type="curve"/>
      <point x="108" y="450" type="line"/>
      <point x="152" y="453"/>
      <point x="226" y="456"/>
      <point x="288" y="456" type="curve" smooth="yes"/>
      <point x="361" y="456"/>
      <point x="399" y="418"/>
      <point x="399" y="345" type="curve" smooth="yes"/>
      <point x="399" y="198" type="line" smooth="yes"/>
      <point x="395" y="94"/>
      <point x="327" y="62"/>
      <point x="260" y="62" type="curve" smooth="yes"/>
      <point x="183" y="62"/>
      <point x="140" y="101"/>
      <point x="140" y="160" type="curve" smooth="yes"/>
      <point x="140" y="219"/>
      <point x="183" y="260"/>
      <point x="260" y="260" type="curve" smooth="yes"/>
      <point x="409" y="260" type="line"/>
      <point x="409" y="332" type="line"/>
      <point x="264" y="332" type="line" smooth="yes"/>
      <point x="125" y="332"/>
      <point x="46" y="273"/>
      <point x="46" y="160" type="curve" smooth="yes"/>
      <point x="46" y="49"/>
      <point x="119" y="-14"/>
      <point x="240" y="-14" type="curve" smooth="yes"/>
      <point x="355" y="-14"/>
      <point x="433" y="44"/>
      <point x="443" y="160" type="curve"/>
      <point x="417" y="160" type="line"/>
      <point x="446" y="62"/>
      <point x="519" y="-18"/>
    </contour>
  </outline>
</glyph>
<glyph name="oslash" format="2">
  <advance width="676"/>
  <unicode hex="00F8"/>
  <guideline y="586"/>
  <anchor x="338" y="0" name="bottom"/>
  <anchor x="338" y="267" name="center"/>
  <anchor x="453" y="10" name="ogonek"/>
  <anchor x="338" y="534" name="top"/>
  <outline>
    <contour>
      <point x="74" y="-52" type="line"/>
      <point x="156" y="-52" type="line"/>
      <point x="600" y="586" type="line"/>
      <point x="518" y="586" type="line"/>
    </contour>
    <component base="o"/>
  </outline>
</glyph>
<glyph name="thorn" format="2">
  <advance width="689"/>
  <unicode hex="00FE"/>
  <outline>
    <contour>
      <point x="92" y="-200" type="line"/>
      <point x="188" y="-200" type="line"/>
      <point x="188" y="157" type="line"/>
      <point x="144" y="237" type="line"/>
      <point x="153" y="54"/>
      <point x="260" y="-16"/>
      <point x="380" y="-16" type="curve" smooth="yes"/>
      <point x="530" y="-16"/>
      <point x="637" y="99"/>
      <point x="637" y="257" type="curve" smooth="yes"/>
      <point x="637" y="277" type="line" smooth="yes"/>
      <point x="637" y="436"/>
      <point x="538" y="554"/>
      <point x="386" y="554" type="curve" smooth="yes"/>
      <point x="262" y="554"/>
      <point x="163" y="476"/>
      <point x="154" y="307" type="curve"/>
      <point x="188" y="355" type="line"/>
      <point x="188" y="730" type="line"/>
      <point x="92" y="730" type="line"/>
    </contour>
    <contour>
      <point x="363" y="68" type="curve" smooth="yes"/>
      <point x="268" y="68"/>
      <point x="184" y="133"/>
      <point x="184" y="243" type="curve" smooth="yes"/>
      <point x="184" y="289" type="line" smooth="yes"/>
      <point x="184" y="402"/>
      <point x="266" y="470"/>
      <point x="363" y="470" type="curve" smooth="yes"/>
      <point x="469" y="470"/>
      <point x="541" y="390"/>
      <point x="541" y="271" type="curve" smooth="yes"/>
      <point x="541" y="154"/>
      <point x="470" y="68"/>
    </contour>
  </outline>
</glyph>
<glyph name="eng" format="2">
  <advance width="640"/>
  <unicode hex="014B"/>
  <anchor x="324" y="0" name="bottom"/>
  <anchor x="328" y="534" name="top"/>
  <outline>
    <contour>
      <point x="305" y="-200" type="line"/>
      <point x="361" y="-200" type="line" smooth="yes"/>
      <point x="492" y="-200"/>
      <point x="556" y="-146"/>
      <point x="556" y="-15" type="curve" smooth="yes"/>
      <point x="556" y="20" type="line"/>
      <point x="460" y="20" type="line"/>
      <point x="460" y="-29" type="line" smooth="yes"/>
      <point x="460" y="-83"/>
      <point x="429" y="-114"/>
      <point x="375" y="-114" type="curve" smooth="yes"/>
      <point x="305" y="-114" type="line"/>
    </contour>
    <component base="n"/>
  </outline>
</glyph>
<glyph name="Tbar" format="2">
  <advance width="594"/>
  <unicode hex="0166"/>
  <anchor x="297" y="0" name="bottom"/>
  <anchor x="297" y="365" name="center"/>
  <anchor x="297" y="730" name="top"/>
  <outline>
    <contour>
      <point x="92" y="320" type="line"/>
      <point x="502" y="320" type="line"/>
      <point x="502" y="400" type="line"/>
      <point x="92" y="400" type="line"/>
    </contour>
    <component base="T"/>
  </outline>
</glyph>
<glyph name="acutecomb" format="2">
  <unicode hex="0301"/>
  <anchor x="49" y="534" name="_top"/>
  <anchor x="134" y="810" name="top"/>
  <outline>
    <contour>
      <point x="0" y="612" type="line"/>
      <point x="78" y="612" type="line"/>
      <point x="189" y="810" type="line"/>
      <point x="88" y="810" type="line"/>
    </contour>
  </outline>
</glyph>
<glyph name="Germandbls" format="2">
  <advance width="1326"/>
  <unicode hex="1E9E"/>
  <outline>
    <contour>
      <point x="339" y="-16" type="curve" smooth="yes"/>
      <point x="516" y="-16"/>
      <point x="622" y="77"/>
      <point x="622" y="212" type="curve" smooth="yes"/>
      <point x="622" y="330"/>
      <point x="530" y="398"/>
      <point x="381" y="412" type="curve" smooth="yes"/>
      <point x="305" y="419" type="line" smooth="yes"/>
      <point x="224" y="426"/>
      <point x="184" y="472"/>
      <point x="184" y="524" type="curve" smooth="yes"/>
      <point x="184" y="593"/>
      <point x="232" y="656"/>
      <point x="338" y="656" type="curve" smooth="yes"/>
      <point x="443" y="656"/>
      <point x="495" y="587"/>
      <point x="495" y="523" type="curve"/>
      <point x="592" y="523" type="line"/>
      <point x="592" y="666"/>
      <point x="490" y="746"/>
      <point x="338" y="746" type="curve" smooth="yes"/>
      <point x="187" y="746"/>
      <point x="86" y="659"/>
      <point x="86" y="524" type="curve" smooth="yes"/>
      <point x="86" y="406"/>
      <point x="169" y="341"/>
      <point x="297" y="329" type="curve" smooth="yes"/>
      <point x="373" y="322" type="line" smooth="yes"/>
      <point x="471" y="313"/>
      <point x="524" y="269"/>
      <point x="524" y="212" type="curve" smooth="yes"/>
      <point x="524" y="139"/>
      <point x="466" y="74"/>
      <point x="339" y="74" type="curve" smooth="yes"/>
      <point x="198" y="74"/>
      <point x="153" y="156"/>
      <point x="153" y="215" type="curve"/>
      <point x="56" y="215" type="line"/>
      <point x="56" y="72"/>
      <point x="164" y="-16"/>
    </contour>
    <contour>
      <point x="990" y="-16" type="curve" smooth="yes"/>
      <point x="1166" y="-16"/>
      <point x="1268" y="77"/>
      <point x="1268" y="212" type="curve" smooth="yes"/>
      <point x="1268" y="331"/>
      <point x="1174" y="399"/>
      <point x="1027" y="412" type="curve" smooth="yes"/>
      <point x="947" y="419" type="line" smooth="yes"/>
      <point x="866" y="426"/>
      <point x="826" y="472"/>
      <point x="826" y="524" type="curve" smooth="yes"/>
      <point x="826" y="593"/>
      <point x="876" y="656"/>
      <point x="983" y="656" type="curve" smooth="yes"/>
      <point x="1089" y="656"/>
      <point x="1141" y="587"/>
      <point x="1141" y="523" type="curve"/>
      <point x="1238" y="523" type="line"/>
      <point x="1238" y="666"/>
      <point x="1136" y="746"/>
      <point x="983" y="746" type="curve" smooth="yes"/>
      <point x="831" y="746"/>
      <point x="728" y="659"/>
      <point x="728" y="524" type="curve" smooth="yes"/>
      <point x="728" y="407"/>
      <point x="811" y="340"/>
      <point x="939" y="329" type="curve" smooth="yes"/>
      <point x="1019" y="322" type="line" smooth="yes"/>
      <point x="1117" y="313"/>
      <point x="1170" y="270"/>
      <point x="1170" y="212" type="curve" smooth="yes"/>
      <point x="1170" y="139"/>
      <point x="1116" y="74"/>
      <point x="990" y="74" type="curve" smooth="yes"/>
      <point x="850" y="74"/>
      <point x="809" y="156"/>
      <point x="809" y="215" type="curve"/>
      <point x="712" y="215" type="line"/>
      <point x="712" y="72"/>
      <point x="816" y="-16"/>
    </contour>
  </outline>
</glyph>
<glyph name="emdash" format="2">
  <advance width="900"/>
  <unicode hex="2014"/>
  <outline>
    <contour>
      <point x="18" y="237" type="line"/>
      <point x="882" y="237" type="line"/>
      <point x="882" y="319" type="line"/>
      <point x="18" y="319" type="line"/>
    </contour>
  </outline>
</glyph>
<glyph name="fl" format="2">
  <advance width="656"/>
  <unicode hex="FB02"/>
  <outline>
    <contour>
      <point x="106" y="0" type="line"/>
      <point x="198" y="0" type="line"/>
      <point x="198" y="573" type="line" smooth="yes"/>
      <point x="198" y="621"/>
      <point x="225" y="650"/>
      <point x="275" y="650" type="curve" smooth="yes"/>
      <point x="339" y="650" type="line"/>
      <point x="339" y="730" type="line"/>
      <point x="291" y="730" type="line" smooth="yes"/>
      <point x="170" y="730"/>
      <point x="106" y="676"/>
      <point x="106" y="557" type="curve" smooth="yes"/>
    </contour>
    <contour>
      <point x="32" y="456" type="line"/>
      <point x="343" y="456" type="line"/>
      <point x="343" y="528" type="line"/>
      <point x="32" y="528" type="line"/>
    </contour>
    <contour>
      <point x="468" y="0" type="line"/>
      <point x="564" y="0" type="line"/>
      <point x="564" y="730" type="line"/>
      <point x="468" y="730" type="line"/>
    </contour>
    <contour>
      <point x="397" y="654" type="line"/>
      <point x="564" y="654" type="line"/>
      <point x="564" y="730" type="line"/>
      <point x="397" y="730" type="line"/>
    </contour>
  </outline>
</glyph>
<glyph name="I.salt" format="2">
  <advance width="448"/>
  <anchor x="224" y="0" name="bottom"/>
  <anchor x="282" y="10" name="ogonek"/>
  <anchor x="224" y="730" name="top"/>
  <outline>
    <contour>
      <point x="175" y="64" type="line"/>
      <point x="273" y="64" type="line"/>
      <point x="273" y="666" type="line"/>
      <point x="175" y="666" type="line"/>
    </contour>
    <contour>
      <point x="88" y="0" type="line"/>
      <point x="360" y="0" type="line"/>
      <point x="360" y="84" type="line"/>
      <point x="88" y="84" type="line"/>
    </contour>
    <contour>
      <point x="88" y="646" type="line"/>
      <point x="360" y="646" type="line"/>
      <point x="360" y="730" type="line"/>
      <point x="88" y="730" type="line"/>
    </contour>
  </outline>
</glyph>
<glyph name="braceleft.case" format="2">
  <advance width="376"/>
  <outline>
    <contour>
      <point x="306" y="-118" type="curve" smooth="yes"/>
      <point x="330" y="-118" type="line"/>
      <point x="330" y="-42" type="line"/>
      <point x="306" y="-42" type="line" smooth="yes"/>
      <point x="249" y="-42"/>
      <point x="216" y="-7"/>
      <point x="216" y="62" type="curve" smooth="yes"/>
      <point x="216" y="227" type="line" smooth="yes"/>
      <point x="216" y="297"/>
      <point x="183" y="334"/>
      <point x="122" y="342" type="curve"/>
      <point x="122" y="350" type="line"/>
      <point x="183" y="358"/>
      <point x="216" y="395"/>
      <point x="216" y="465" type="curve" smooth="yes"/>
      <point x="216" y="626" type="line" smooth="yes"/>
      <point x="216" y="695"/>
      <point x="249" y="730"/>
      <point x="306" y="730" type="curve" smooth="yes"/>
      <point x="330" y="730" type="line"/>
      <point x="330" y="806" type="line"/>
      <point x="306" y="806" type="line" smooth="yes"/>
      <point x="198" y="806"/>
      <point x="124" y="740"/>
      <point x="124" y="620" type="curve" smooth="yes"/>
      <point x="124" y="455" type="line" smooth="yes"/>
      <point x="124" y="414"/>
      <point x="96" y="391"/>
      <point x="56" y="391" type="curve"/>
      <point x="56" y="301" type="line"/>
      <point x="96" y="301"/>
      <point x="124" y="278"/>
      <point x="124" y="237" type="curve" smooth="yes"/>
      <point x="124" y="68" type="line" smooth="yes"/>
      <point x="124" y="-52"/>
      <point x="198" y="-118"/>
    </contour>
  </outline>
</glyph>
<glyph name="commaaccentcomb.case" format="2">
  <anchor x="67" y="0" name="_bottom"/>
  <anchor x="69" y="-300" name="bottom"/>
  <outline>
    <contour>
      <point x="0" y="-284" type="line"/>
      <point x="7" y="-284" type="line" smooth="yes"/>
      <point x="84" y="-284"/>
      <point x="136" y="-237"/>
      <point x="136" y="-155" type="curve" smooth="yes"/>
      <point x="136" y="-149" type="line" smooth="yes"/>
      <point x="136" y="-82"/>
      <point x="102" y="-50"/>
      <point x="60" y="-50" type="curve" smooth="yes"/>
      <point x="30" y="-50"/>
      <point x="2" y="-69"/>
      <point x="2" y="-107" type="curve" smooth="yes"/>
      <point x="2" y="-143"/>
      <point x="28" y="-161"/>
      <point x="58" y="-161" type="curve" smooth="yes"/>
      <point x="82" y="-161"/>
      <point x="97" y="-149"/>
      <point x="106" y="-137" type="curve"/>
      <point x="82" y="-130" type="line"/>
      <point x="82" y="-157" type="line" smooth="yes"/>
      <point x="82" y="-203"/>
      <point x="55" y="-236"/>
      <point x="9" y="-236" type="curve" smooth="yes"/>
      <point x="0" y="-236" type="line"/>
    </contour>
  </outline>
</glyph>
<glyph name="currency.tnum" format="2">
  <advance width="650"/>
  <outline>
    <contour>
      <point x="325" y="147" type="curve" smooth="yes"/>
      <point x="466" y="147"/>
      <point x="538" y="258"/>
      <point x="538" y="360" type="curve" smooth="yes"/>
      <point x="538" y="376" type="line" smooth="yes"/>
      <point x="538" y="480"/>
      <point x="466" y="589"/>
      <point x="325" y="589" type="curve" smooth="yes"/>
      <point x="184" y="589"/>
      <point x="112" y="480"/>
      <point x="112" y="376" type="curve" smooth="yes"/>
      <point x="112" y="360" type="line" smooth="yes"/>
      <point x="112" y="258"/>
      <point x="184" y="147"/>
    </contour>
    <contour>
      <point x="107" y="93" type="line"/>
      <point x="210" y="196" type="line"/>
      <point x="152" y="254" type="line"/>
      <point x="49" y="151" type="line"/>
    </contour>
    <contour>
      <point x="152" y="482" type="line"/>
      <point x="210" y="540" type="line"/>
      <point x="107" y="643" type="line"/>
      <point x="49" y="585" type="line"/>
    </contour>
    <contour>
      <point x="325" y="227" type="curve" smooth="yes"/>
      <point x="244" y="227"/>
      <point x="198" y="287"/>
      <point x="198" y="368" type="curve" smooth="yes"/>
      <point x="198" y="452"/>
      <point x="246" y="509"/>
      <point x="325" y="509" type="curve" smooth="yes"/>
      <point x="404" y="509"/>
      <point x="452" y="452"/>
      <point x="452" y="368" type="curve" smooth="yes"/>
      <point x="452" y="287"/>
      <point x="406" y="227"/>
    </contour>
    <contour>
      <point x="543" y="93" type="line"/>
      <point x="601" y="151" type="line"/>
      <point x="498" y="254" type="line"/>
      <point x="440" y="196" type="line"/>
    </contour>
    <contour>
      <point x="498" y="482" type="line"/>
      <point x="601" y="585" type="line"/>
      <point x="543" y="643" type="line"/>
      <point x="440" y="540" type="line"/>
    </contour>
  </outline>
</glyph>
<glyph name="eight.tnum" format="2">
  <advance width="650"/>
  <outline>
    <contour>
      <point x="325" y="-18" type="curve" smooth="yes"/>
      <point x="483" y="-18"/>
      <point x="595" y="72"/>
      <point x="595" y="204" type="curve" smooth="yes"/>
      <point x="595" y="290"/>
      <point x="538" y="356"/>
      <point x="462" y="385" type="curve"/>
      <point x="462" y="395" type="line"/>
      <point x="522" y="421"/>
      <point x="571" y="474"/>
      <point x="571" y="550" type="curve" smooth="yes"/>
      <point x="571" y="675"/>
      <point x="460" y="748"/>
      <point x="325" y="748" type="curve" smooth="yes"/>
      <point x="190" y="748"/>
      <point x="79" y="675"/>
      <point x="79" y="550" type="curve" smooth="yes"/>
      <point x="79" y="474"/>
      <point x="128" y="421"/>
      <point x="188" y="395" type="curve"/>
      <point x="188" y="385" type="line"/>
      <point x="112" y="356"/>
      <point x="55" y="290"/>
      <point x="55" y="204" type="curve" smooth="yes"/>
      <point x="55" y="72"/>
      <point x="167" y="-18"/>
    </contour>
    <contour>
      <point x="325" y="64" type="curve" smooth="yes"/>
      <point x="215" y="64"/>
      <point x="149" y="119"/>
      <point x="149" y="208" type="curve" smooth="yes"/>
      <point x="149" y="296"/>
      <point x="214" y="351"/>
      <point x="325" y="351" type="curve" smooth="yes"/>
      <point x="436" y="351"/>
      <point x="501" y="296"/>
      <point x="501" y="208" type="curve" smooth="yes"/>
      <point x="501" y="119"/>
      <point x="435" y="64"/>
    </contour>
    <contour>
      <point x="325" y="427" type="curve" smooth="yes"/>
      <point x="235" y="427"/>
      <point x="173" y="465"/>
      <point x="173" y="547" type="curve" smooth="yes"/>
      <point x="173" y="628"/>
      <point x="234" y="666"/>
      <point x="325" y="666" type="curve" smooth="yes"/>
      <point x="416" y="666"/>
      <point x="477" y="628"/>
      <point x="477" y="547" type="curve" smooth="yes"/>
      <point x="477" y="465"/>
      <point x="415" y="427"/>
    </contour>
  </outline>
</glyph>
<glyph name="euro.tnum" format="2">
  <advance width="650"/>
  <outline>
    <contour>
      <point x="389" y="-14" type="curve" smooth="yes"/>
      <point x="559" y="-14"/>
      <point x="630" y="76"/>
      <point x="636" y="204" type="curve"/>
      <point x="550" y="204" type="line"/>
      <point x="545" y="120"/>
      <point x="496" y="68"/>
      <point x="389" y="68" type="curve" smooth="yes"/>
      <point x="257" y="68"/>
      <point x="186" y="155"/>
      <point x="186" y="365" type="curve" smooth="yes"/>
      <point x="186" y="575"/>
      <point x="251" y="662"/>
      <point x="381" y="662" type="curve" smooth="yes"/>
      <point x="486" y="662"/>
      <point x="536" y="610"/>
      <point x="542" y="526" type="curve"/>
      <point x="628" y="526" type="line"/>
      <point x="622" y="654"/>
      <point x="549" y="744"/>
      <point x="381" y="744" type="curve" smooth="yes"/>
      <point x="193" y="744"/>
      <point x="100" y="617"/>
      <point x="100" y="372" type="curve" smooth="yes"/>
      <point x="100" y="358" type="line" smooth="yes"/>
      <point x="100" y="113"/>
      <point x="199" y="-14"/>
    </contour>
    <contour>
      <point x="10" y="247" type="line"/>
      <point x="444" y="247" type="line"/>
      <point x="444" y="313" type="line"/>
      <point x="10" y="313" type="line"/>
    </contour>
    <contour>
      <point x="28" y="399" type="line"/>
      <point x="462" y="399" type="line"/>
      <point x="462" y="465" type="line"/>
      <point x="28" y="465" type="line"/>
    </contour>
  </outline>
</glyph>
<glyph name="f_f_j" format="2">
  <advance width="1007"/>
  <outline>
    <contour>
      <point x="106" y="0" type="line"/>
      <point x="198" y="0" type="line"/>
      <point x="198" y="589" type="line" smooth="yes"/>
      <point x="198" y="637"/>
      <point x="225" y="666"/>
      <point x="275" y="666" type="curve" smooth="yes"/>
      <point x="345" y="666" type="line"/>
      <point x="345" y="746" type="line"/>
      <point x="291" y="746" type="line" smooth="yes"/>
      <point x="170" y="746"/>
      <point x="106" y="692"/>
      <point x="106" y="573" type="curve" smooth="yes"/>
    </contour>
    <contour>
      <point x="449" y="0" type="line"/>
      <point x="541" y="0" type="line"/>
      <point x="541" y="583" type="line" smooth="yes"/>
      <point x="541" y="631"/>
      <point x="568" y="660"/>
      <point x="618" y="660" type="curve" smooth="yes"/>
      <point x="687" y="660" type="line"/>
      <point x="687" y="740" type="line"/>
      <point x="634" y="740" type="line" smooth="yes"/>
      <point x="513" y="740"/>
      <point x="449" y="686"/>
      <point x="449" y="567" type="curve" smooth="yes"/>
    </contour>
    <contour>
      <point x="686" y="-200" type="line"/>
      <point x="730" y="-200" type="line" smooth="yes"/>
      <point x="864" y="-200"/>
      <point x="915" y="-155"/>
      <point x="915" y="-21" type="curve" smooth="yes"/>
      <point x="915" y="534" type="line"/>
      <point x="823" y="534" type="line"/>
      <point x="823" y="-35" type="line" smooth="yes"/>
      <point x="823" y="-85"/>
      <point x="794" y="-114"/>
      <point x="744" y="-114" type="curve" smooth="yes"/>
      <point x="686" y="-114" type="line"/>
    </contour>
    <contour>
      <point x="32" y="462" type="line"/>
      <point x="691" y="462" type="line"/>
      <point x="691" y="534" type="line"/>
      <point x="32" y="534" type="line"/>
    </contour>
    <contour>
      <point x="745" y="458" type="line"/>
      <point x="915" y="458" type="line"/>
      <point x="915" y="534" type="line"/>
      <point x="745" y="534" type="line"/>
    </contour>
    <contour>
      <point x="846" y="628" type="curve" smooth="yes"/>
      <point x="889" y="628"/>
      <point x="909" y="653"/>
      <point x="909" y="688" type="curve" smooth="yes"/>
      <point x="909" y="723"/>
      <point x="889" y="748"/>
      <point x="846" y="748" type="curve" smooth="yes"/>
      <point x="803" y="748"/>
      <point x="783" y="723"/>
      <point x="783" y="688" type="curve" smooth="yes"/>
      <point x="783" y="653"/>
      <point x="803" y="628"/>
    </contour>
  </outline>
</glyph>
<glyph name="five.tnum" format="2">
  <advance width="650"/>
  <outline>
    <contour>
      <point x="333" y="-18" type="curve" smooth="yes"/>
      <point x="501" y="-18"/>
      <point x="596" y="101"/>
      <point x="596" y="219" type="curve" smooth="yes"/>
      <point x="596" y="233" type="line" smooth="yes"/>
      <point x="596" y="351"/>
      <point x="503" y="470"/>
      <point x="337" y="470" type="curve" smooth="yes"/>
      <point x="262" y="470"/>
      <point x="204" y="446"/>
      <point x="168" y="407" type="curve"/>
      <point x="194" y="398" type="line"/>
      <point x="222" y="681" type="line"/>
      <point x="198" y="648" type="line"/>
      <point x="532" y="648" type="line"/>
      <point x="532" y="730" type="line"/>
      <point x="142" y="730" type="line"/>
      <point x="105" y="342" type="line"/>
      <point x="194" y="342" type="line"/>
      <point x="224" y="372"/>
      <point x="284" y="390"/>
      <point x="333" y="390" type="curve" smooth="yes"/>
      <point x="434" y="390"/>
      <point x="504" y="318"/>
      <point x="504" y="226" type="curve" smooth="yes"/>
      <point x="504" y="134"/>
      <point x="435" y="66"/>
      <point x="333" y="66" type="curve" smooth="yes"/>
      <point x="231" y="66"/>
      <point x="162" y="133"/>
      <point x="162" y="226" type="curve"/>
      <point x="70" y="226" type="line"/>
      <point x="70" y="100"/>
      <point x="164" y="-18"/>
    </contour>
  </outline>
</glyph>
<glyph name="fl.salt" format="2">
  <advance width="670"/>
  <outline>
    <contour>
      <point x="106" y="0" type="line"/>
      <point x="198" y="0" type="line"/>
      <point x="198" y="617" type="line" smooth="yes"/>
      <point x="198" y="647"/>
      <point x="214" y="672"/>
      <point x="247" y="672" type="curve" smooth="yes"/>
      <point x="280" y="672"/>
      <point x="298" y="647"/>
      <point x="298" y="617" type="curve"/>
      <point x="374" y="617" type="line"/>
      <point x="374" y="693"/>
      <point x="332" y="746"/>
      <point x="245" y="746" type="curve" smooth="yes"/>
      <point x="158" y="746"/>
      <point x="106" y="693"/>
      <point x="106" y="617" type="curve" smooth="yes"/>
    </contour>
    <contour>
      <point x="32" y="452" type="line"/>
      <point x="352" y="452" type="line"/>
      <point x="352" y="524" type="line"/>
      <point x="32" y="524" type="line"/>
    </contour>
    <contour>
      <point x="582" y="-6" type="curve" smooth="yes"/>
      <point x="632" y="-6" type="line"/>
      <point x="632" y="76" type="line"/>
      <point x="576" y="76" type="line" smooth="yes"/>
      <point x="550" y="76"/>
      <point x="536" y="90"/>
      <point x="536" y="116" type="curve" smooth="yes"/>
      <point x="536" y="730" type="line"/>
      <point x="440" y="730" type="line"/>
      <point x="440" y="120" type="line" smooth="yes"/>
      <point x="440" y="28"/>
      <point x="494" y="-6"/>
    </contour>
  </outline>
</glyph>
<glyph name="lslash.salt" format="2">
  <advance width="306"/>
  <anchor x="171" y="0" name="bottom"/>
  <anchor x="151" y="480" name="center"/>
  <anchor x="124" y="730" name="top"/>
  <anchor x="172" y="534" name="topright"/>
  <outline>
    <contour>
      <point x="17" y="230" type="line"/>
      <point x="106" y="281" type="line"/>
      <point x="106" y="353" type="line"/>
      <point x="17" y="302" type="line"/>
    </contour>
    <contour>
      <point x="162" y="309" type="line"/>
      <point x="260" y="365" type="line"/>
      <point x="260" y="437" type="line"/>
      <point x="162" y="381" type="line"/>
    </contour>
    <component base="l.salt"/>
  </outline>
</glyph>
<glyph name="multiply.tnum" format="2">
  <advance width="650"/>
  <outline>
    <contour>
      <point x="145" y="112" type="line"/>
      <point x="92" y="165" type="line"/>
      <point x="505" y="577" type="line"/>
      <point x="558" y="524" type="line"/>
    </contour>
    <contour>
      <point x="501" y="112" type="line"/>
      <point x="92" y="520" type="line"/>
      <point x="149" y="577" type="line"/>
      <point x="558" y="169" type="line"/>
    </contour>
  </outline>
</glyph>
<glyph name="ogonekcomb.case" format="2">
  <anchor x="226" y="10" name="_ogonek"/>
  <outline>
    <contour>
      <point x="181" y="-254" type="curve" smooth="yes"/>
      <point x="202" y="-254"/>
      <point x="223" y="-250"/>
      <point x="238" y="-245" type="curve"/>
      <point x="238" y="-175" type="line"/>
      <point x="223" y="-181"/>
      <point x="202" y="-184"/>
      <point x="187" y="-184" type="curve" smooth="yes"/>
      <point x="146" y="-184"/>
      <point x="126" y="-156"/>
      <point x="126" y="-125" type="curve" smooth="yes"/>
      <point x="126" y="-90"/>
      <point x="150" y="-53"/>
      <point x="193" y="-23" type="curve" smooth="yes"/>
      <point x="226" y="0" type="line"/>
      <point x="194" y="45" type="line"/>
      <point x="162" y="24" type="line" smooth="yes"/>
      <point x="98" y="-18"/>
      <point x="56" y="-73"/>
      <point x="56" y="-135" type="curve" smooth="yes"/>
      <point x="56" y="-203"/>
      <point x="107" y="-254"/>
    </contour>
  </outline>
</glyph>
<glyph name="seven.tnum.salt" format="2">
  <advance width="650"/>
  <outline>
    <contour>
      <point x="241" y="0" type="line"/>
      <point x="333" y="0" type="line"/>
      <point x="333" y="133" type="line" smooth="yes"/>
      <point x="333" y="336"/>
      <point x="406" y="484"/>
      <point x="573" y="603" type="curve"/>
      <point x="573" y="730" type="line"/>
      <point x="66" y="730" type="line"/>
      <point x="66" y="648" type="line"/>
      <point x="477" y="648" type="line"/>
      <point x="481" y="630" type="line"/>
      <point x="331" y="524"/>
      <point x="241" y="353"/>
      <point x="241" y="133" type="curve" smooth="yes"/>
    </contour>
  </outline>
</glyph>
<glyph name="sora.tnum" format="2">
  <advance width="650"/>
  <guideline x="325" y="540" angle="180"/>
  <outline>
    <contour>
      <point x="92" y="-4" type="line"/>
      <point x="322" y="392" type="line"/>
      <point x="281" y="382" type="line"/>
      <point x="364" y="382" type="line"/>
      <point x="325" y="392" type="line"/>
      <point x="553" y="-4" type="line"/>
      <point x="634" y="41" type="line"/>
      <point x="381" y="470" type="line"/>
      <point x="270" y="470" type="line"/>
      <point x="16" y="41" type="line"/>
    </contour>
    <contour>
      <point x="40" y="470" type="line"/>
      <point x="610" y="470" type="line"/>
      <point x="610" y="540" type="line"/>
      <point x="40" y="540" type="line"/>
    </contour>
    <contour>
      <point x="280" y="520" type="line"/>
      <point x="370" y="520" type="line"/>
      <point x="370" y="674" type="line"/>
      <point x="280" y="674" type="line"/>
    </contour>
    <contour>
      <point x="40" y="660" type="line"/>
      <point x="610" y="660" type="line"/>
      <point x="610" y="730" type="line"/>
      <point x="40" y="730" type="line"/>
    </contour>
  </outline>
</glyph>
<glyph name="u.salt" format="2">
  <advance width="620"/>
  <anchor x="310" y="0" name="bottom"/>
  <anchor x="410" y="10" name="ogonek"/>
  <anchor x="310" y="534" name="top"/>
  <anchor x="600" y="534" name="topright"/>
  <outline>
    <contour>
      <point x="310" y="-18" type="curve" smooth="yes"/>
      <point x="437" y="-18"/>
      <point x="540" y="65"/>
      <point x="540" y="224" type="curve" smooth="yes"/>
      <point x="540" y="534" type="line"/>
      <point x="444" y="534" type="line"/>
      <point x="444" y="206" type="line" smooth="yes"/>
      <point x="444" y="120"/>
      <point x="390" y="70"/>
      <point x="310" y="70" type="curve" smooth="yes"/>
      <point x="230" y="70"/>
      <point x="176" y="120"/>
      <point x="176" y="206" type="curve" smooth="yes"/>
      <point x="176" y="534" type="line"/>
      <point x="80" y="534" type="line"/>
      <point x="80" y="224" type="line" smooth="yes"/>
      <point x="80" y="65"/>
      <point x="183" y="-18"/>
    </contour>
  </outline>
</glyph>
<glyph name="yen.tnum" format="2">
  <advance width="650"/>
  <outline>
    <contour>
      <point x="253" y="308" type="line"/>
      <point x="411" y="308" type="line"/>
      <point x="608" y="730" type="line"/>
      <point x="512" y="730" type="line"/>
      <point x="348" y="366" type="line"/>
      <point x="390" y="374" type="line"/>
      <point x="280" y="374" type="line"/>
      <point x="320" y="366" type="line"/>
      <point x="144" y="730" type="line"/>
      <point x="42" y="730" type="line"/>
    </contour>
    <contour>
      <point x="287" y="0" type="line"/>
      <point x="377" y="0" type="line"/>
      <point x="377" y="328" type="line"/>
      <point x="287" y="328" type="line"/>
    </contour>
    <contour>
      <point x="75" y="156" type="line"/>
      <point x="589" y="156" type="line"/>
      <point x="589" y="222" type="line"/>
      <point x="75" y="222" type="line"/>
    </contour>
    <contour>
      <point x="75" y="308" type="line"/>
      <point x="589" y="308" type="line"/>
      <point x="589" y="374" type="line"/>
      <point x="75" y="374" type="line"/>
    </contour>
  </outline>
</glyph>
